<svg width="96" height="96" viewBox="0 0 96 96" fill="none" xmlns="http://www.w3.org/2000/svg">
<path d="M27.304 26.9045H10V14H27.304V26.9045ZM27.304 80H10V31.3373H27.304V80Z" fill="#9D93F0"/>
<path d="M84 80H66.696V52.8119C66.696 49.8567 66.3115 47.6239 65.5424 46.1134C64.7734 44.5373 63.075 43.7493 60.4474 43.7493C58.7811 43.7493 57.4993 44.0119 56.602 44.5373C55.7048 45.0627 55.0639 46.0478 54.6794 47.4925C54.3589 48.8716 54.1987 50.8746 54.1987 53.5015L53.9103 47.8866C54.2308 44.9313 54.9357 42.1075 56.0252 39.4149C57.1788 36.7224 58.8452 34.5552 61.0242 32.9134C63.2673 31.206 66.1833 30.3522 69.7723 30.3522C74.1944 30.3522 77.6552 31.6985 80.1547 34.391C82.7182 37.0836 84 40.9254 84 45.9164V80ZM54.1987 80H36.8948V14H54.1987V80Z" fill="#9D93F0"/>
</svg>
